HIERARCHY
ROOT Hips
{
	OFFSET	0	0	0
	CHANNELS 6  Xposition Yposition Zposition Xrotation Yrotation Zrotation
	JOINT Spine
	{
		OFFSET	0	6.43035	1.29592
		CHANNELS 3  Xrotation Yrotation Zrotation
		JOINT Spine1
		{
			OFFSET	0	11.0515	-1.97348
			CHANNELS 3  Xrotation Yrotation Zrotation
			JOINT Spine2
			{
				OFFSET	0	8.37743	0.897934
				CHANNELS 3  Xrotation Yrotation Zrotation
				JOINT Spine3
				{
					OFFSET	0	10.0253	2.97996
					CHANNELS 3  Xrotation Yrotation Zrotation
					JOINT Spine4
					{
						OFFSET	0	14.8406	-1.51958
						CHANNELS 3  Xrotation Yrotation Zrotation
						JOINT Neck
						{
							OFFSET	0	7.0848	-4.96331
							CHANNELS 3  Xrotation Yrotation Zrotation
							JOINT Head
							{
								OFFSET	0	8.50571	-2.54579
								CHANNELS 3  Xrotation Yrotation Zrotation
								End Site
								{
									OFFSET	0	17.7416	-0.858465
								}
							}
						}
					}
					JOINT LeftShoulder
					{
						OFFSET	-4.26272	18.0376	-8.50571
						CHANNELS 3  Xrotation Yrotation Zrotation
						JOINT LeftArm
						{
							OFFSET	-9.26857	-2.54579	3.26613
							CHANNELS 3  Xrotation Yrotation Zrotation
							JOINT LeftForeArm
							{
								OFFSET	-28.2392	-1.28889	2.01568
								CHANNELS 3  Xrotation Yrotation Zrotation
								JOINT LeftHand
								{
									OFFSET	-22.9751	-1.58771	1.63994
									CHANNELS 3  Xrotation Yrotation Zrotation
									End Site
									{
										OFFSET	-8.38477	-0.579434	0.598457
									}
								}
							}
						}
					}
					JOINT RightShoulder
					{
						OFFSET	4.26272	18.0376	-8.50571
						CHANNELS 3  Xrotation Yrotation Zrotation
						JOINT RightArm
						{
							OFFSET	9.26857	-2.54579	3.26613
							CHANNELS 3  Xrotation Yrotation Zrotation
							JOINT RightForeArm
							{
								OFFSET	28.2392	-1.28889	2.01568
								CHANNELS 3  Xrotation Yrotation Zrotation
								JOINT RightHand
								{
									OFFSET	22.9751	-1.58771	1.63994
									CHANNELS 3  Xrotation Yrotation Zrotation
									End Site
									{
										OFFSET	8.38477	-0.579434	0.598457
									}
								}
							}
						}
					}
				}
			}
		}
	}
	JOINT LeftUpLeg
	{
		OFFSET	-8.79432	-3.21518	-0.64796
		CHANNELS 3  Xrotation Yrotation Zrotation
		JOINT LeftLeg
		{
			OFFSET	-1.93242	-37.8649	-0.591911
			CHANNELS 3  Xrotation Yrotation Zrotation
			JOINT LeftFoot
			{
				OFFSET	-1.8889	-34.8184	2.99439
				CHANNELS 3  Xrotation Yrotation Zrotation
				JOINT LeftToeBase
				{
					OFFSET	0	-4.3392	-11.5249
					CHANNELS 3  Xrotation Yrotation Zrotation
					End Site
					{
						OFFSET	0	-1.73568	-6.94272
					}
				}
			}
		}
	}
	JOINT RightUpLeg
	{
		OFFSET	8.79432	-3.21518	-0.64796
		CHANNELS 3  Xrotation Yrotation Zrotation
		JOINT RightLeg
		{
			OFFSET	1.93242	-37.8649	-0.591911
			CHANNELS 3  Xrotation Yrotation Zrotation
			JOINT RightFoot
			{
				OFFSET	1.8889	-34.8184	2.99439
				CHANNELS 3  Xrotation Yrotation Zrotation
				JOINT RightToeBase
				{
					OFFSET	0	-4.3392	-11.5249
					CHANNELS 3  Xrotation Yrotation Zrotation
					End Site
					{
						OFFSET	0	-1.73568	-6.94272
					}
				}
			}
		}
	}
}
MOTION
Frames: 11
Frame Time: 0.020408
 -64.0322 77.2232 33.7855 147.309 -37.8814 -173.644 0.000915894 0.00771468 -6.77052 168.134 179.985 168.716 167.444 179.954 168.716 170.002 179.992 173.229 0.911047 -0.0359025 -2.25655 12.641 10.4168 12.0953 4.16539 -2.02926 4.12589 1.48252 -26.4857 3.22101 168.479 -144.486 -115.008 134.215 -163.964 161.646 -0 -2.18702 -1.33982 174.355 151.993 -167.667 37.9664 3.71564 -41.2257 71.9251 26.9555 -51.1028 -0 17.8344 -6.27899 12.6269 36.7365 -54.0074 136.21 -173.204 -179.91 36.2523 -0.00227297 11.4889 171.436 180 -180 177.693 165.046 152.543 148.048 -151.785 179.521 1.16856 0.0116998 9.94176 167.644 180 -180
 -64.1393 77.2325 33.9348 147.283 -38.484 -174.286 0.00113535 0.00965179 -6.70895 168.079 179.981 168.818 167.394 179.943 168.818 169.973 179.99 173.291 0.874211 -0.0341374 -2.23606 12.6159 10.1419 11.9845 4.15058 -2.24853 4.07381 1.49317 -26.2664 3.24395 169.182 -144.822 -115.013 134.124 -163.877 161.596 -0 -1.92311 -1.47102 174.314 151.886 -167.576 38.221 4.15449 -40.942 71.4634 26.9708 -50.4626 -0 17.5519 -6.57778 12.8064 37.1336 -53.996 136.699 -172.849 -179.892 36.9408 -0.0163841 11.4929 171.414 180 -180 177.196 165.72 152.332 147.451 -151.638 179.65 2.32114 0.0154414 9.73747 167.688 180 -180
 -64.2098 77.2059 34.0569 147.068 -39.0522 -175.181 0.00115432 0.00989288 -6.65526 168.002 179.98 168.908 167.314 179.941 168.908 169.914 179.99 173.345 0.865059 -0.0335095 -2.21817 12.6941 9.78704 11.8422 4.16616 -2.59139 4.01194 1.48099 -25.9738 3.21711 170.288 -145.232 -114.674 134.086 -163.986 161.684 -0 -1.55895 -1.67291 174.396 151.993 -167.757 38.5763 4.67993 -40.7254 71.1963 27.165 -50.1376 -0 17.3107 -7.02306 12.98 37.3751 -53.8104 136.631 -172.379 -179.977 36.6681 -0.0287694 11.5023 171.391 180 -180 176.09 166.275 152.293 146.97 -151.49 179.786 3.97213 0.0161559 9.58201 167.726 180 -180
 -64.1226 77.1927 34.1088 146.693 -39.4596 -176.194 0.00107836 0.00931227 -6.6054 167.939 179.982 168.991 167.223 179.945 168.991 169.787 179.991 173.395 1.04284 -0.0400926 -2.20143 13.2947 9.57452 11.5842 4.33764 -2.82681 3.95197 1.40678 -25.6397 3.05529 172.103 -145.482 -113.319 134.017 -163.968 161.571 -0 -1.19522 -1.86867 174.541 151.94 -168.078 38.9409 4.85605 -40.1513 70.6702 27.3056 -49.4333 -0 17.0085 -7.5067 13.1516 37.7374 -53.5477 136.461 -171.935 179.938 36.5008 -0.0155122 11.4864 171.365 180 -180 174.551 166.645 152.453 146.64 -151.596 179.834 5.5965 0.0344344 9.45738 167.759 180 -180
 -64.1557 77.1568 34.2032 146.372 -39.8857 -177.119 0.000972002 0.00842997 -6.57734 167.882 179.983 169.038 167.138 179.95 169.038 169.668 179.992 173.423 1.21332 -0.0464476 -2.19195 13.8633 9.38177 11.3616 4.50122 -3.05737 3.9022 1.41272 -25.2077 3.06741 173.449 -145.844 -112.303 133.972 -164.08 161.6 -0 -0.855528 -2.03114 174.659 151.911 -168.337 39.2836 4.8134 -39.4429 70.0956 27.4208 -48.6572 -0 16.7454 -7.96288 13.3455 38.0403 -53.31 136.277 -171.566 179.914 36.5236 0.00167728 11.4769 171.339 180 -180 173.321 167.002 152.674 146.661 -152.25 179.935 7.03434 -0.033708 9.38406 167.787 180 -180
 -64.225 77.0911 34.255 146.291 -40.2238 -177.673 0.000669103 0.00582213 -6.55591 167.83 179.988 169.073 167.061 179.965 169.073 169.564 179.994 173.444 1.35976 -0.0518825 -2.18469 14.3436 9.2123 11.2288 4.64277 -3.3347 3.87614 1.44524 -24.814 3.13719 175.14 -146.193 -111.389 133.861 -163.994 161.467 -0 -0.572959 -2.31975 174.772 151.843 -168.588 39.7043 4.67603 -38.658 69.5126 27.5152 -47.911 -0 16.4605 -8.38825 13.4502 38.3521 -53.0253 136.035 -171.254 179.909 36.7854 0.00127765 11.4576 171.31 180 -180 172.288 167.229 152.891 147.051 -153.237 -179.925 8.4292 -0.0560953 9.32092 167.812 180 -180
 -64.3668 76.839 34.0336 146.665 -40.3137 -177.815 0.000415393 0.00355234 -6.6696 167.778 179.993 168.884 166.989 179.979 168.884 169.478 179.996 173.33 1.46235 -0.0567648 -2.22248 14.8552 7.58969 10.4472 4.75535 -4.65186 3.56114 1.48255 -24.3586 3.21699 176.85 -146.578 -110.52 133.666 -163.781 161.21 -0 -0.353238 -2.66805 174.924 151.887 -168.923 40.6769 5.78339 -39.0411 69.1782 27.7166 -47.7813 -0 16.167 -8.81031 13.3016 39.0478 -52.1993 135.249 -171.01 179.921 37.9256 0.0275169 11.4274 171.281 180 -180 171.649 167.607 153.317 148.205 -154.528 -179.823 10.5551 -0.104642 9.27803 167.834 180 -180
 -64.4706 76.5827 33.8277 146.876 -40.6643 -178.198 0.000799867 0.00690585 -6.60682 167.736 179.986 168.989 166.94 179.959 168.989 169.42 179.993 173.393 1.51582 -0.0582853 -2.2015 15.1226 6.56695 10.1769 4.82325 -5.76394 3.42525 1.43129 -23.9382 3.10439 178.664 -146.902 -109.525 133.435 -163.461 160.747 -0 -0.192737 -3.07006 174.911 151.969 -168.894 41.3815 6.77396 -39.2506 68.8497 27.9433 -47.4663 -0 15.8335 -9.20821 13.6298 39.2111 -51.7561 134.46 -170.766 179.877 39.0257 0.0182363 11.4197 171.252 180 -180 171.023 167.845 153.751 149.429 -155.773 -179.817 12.5215 -0.126521 9.23657 167.855 180 -180
 -64.8448 76.4777 33.9404 147.554 -40.6107 -178.143 180 -179.996 173.485 167.734 -179.993 169.142 166.898 -179.979 169.142 169.324 -179.996 173.485 1.74262 -0.0660672 -2.17052 15.7496 6.22387 10.3176 5.02688 -6.68696 3.47927 1.45065 -23.2977 3.1441 179.527 -147.467 -108.571 133.236 -163.279 160.494 -0 -0.00667453 -3.36912 174.804 151.943 -168.658 41.8805 7.26244 -39.086 68.3543 28.0436 -46.7148 -0 15.5634 -9.51079 14.4075 38.592 -51.5314 133.751 -170.479 179.921 38.8396 0.00666368 11.4815 171.221 180 -180 170.569 168.104 154.173 150.669 -157.215 -179.892 14.0178 -0.136013 9.18978 167.873 180 -180
 -65.4872 76.4136 33.9627 148.073 -40.4107 -178.174 179.999 -179.995 173.595 167.731 -179.99 169.325 166.868 -179.97 169.325 169.245 -179.995 173.595 1.92032 -0.0715793 -2.1339 16.2335 6.00237 10.5052 5.18966 -7.45491 3.55073 1.45315 -22.5551 3.14635 0.0109357 -31.8593 71.8207 133.117 -163.326 160.312 -0 0.176316 -3.63172 174.826 151.683 -168.708 42.3711 7.77711 -39.1987 67.8863 28.11 -46.1383 -0 15.3099 -9.75303 14.9009 37.8908 -50.9653 133.157 -170.245 179.91 38.6878 -0.00898953 11.469 171.189 180 -180 170.469 168.399 154.118 151.593 -158.442 -179.822 15.0789 -0.118502 9.16279 167.888 180 -180
 -65.9285 76.3542 34.2225 148.122 -41.0534 -178.865 179.999 -179.99 173.695 167.715 -179.981 169.492 166.833 -179.942 169.492 169.187 -179.99 173.695 2.02917 -0.0744455 -2.10023 16.5596 5.68731 10.5662 5.29595 -8.09154 3.56923 1.44953 -21.9107 3.13534 0.604745 -31.3334 72.1957 132.89 -163.074 160.033 -0 0.262384 -3.9508 174.913 151.769 -168.898 42.6943 8.34315 -39.6115 67.4946 28.2192 -45.7836 -0 15.0692 -10.0572 15.2778 37.2633 -50.525 132.736 -170.15 179.794 38.4702 0.0105705 11.4249 171.158 180 -180 170.51 168.63 154.106 152.231 -159.482 -179.602 15.8589 -0.0957085 9.18372 167.902 180 -180
